<?xml version="1.0" encoding="UTF-8"?>
<svg width="380px" height="60px" viewBox="0 0 380 60" version="1.1" xmlns="http://www.w3.org/2000/svg" xmlns:xlink="http://www.w3.org/1999/xlink">
    <!-- Generator: Sketch 52.3 (67297) - http://www.bohemiancoding.com/sketch -->
    <title>CanEconomy</title>
    <desc>Created with Sketch.</desc>
    <g id="CanEconomy" stroke="none" stroke-width="1" fill="none" fill-rule="evenodd">
        <g>
            <path d="M135.934943,20.6240498 C134.809763,19.1739487 133.270197,18.039937 131.316244,17.2220148 C129.36229,16.4040925 126.856924,15.9967607 123.800146,16.0000194 C121.346386,16.009337 118.926481,16.5640874 116.721205,17.6228292 C115.660723,18.1188954 114.678583,18.7630138 113.805178,19.535252 C112.616653,20.6104872 111.639894,21.8922154 110.923924,23.3161056 C108.428119,28.1148448 104.651811,32.154576 100,35.0020473 L100,52.0769885 C99.9999999,55.3477003 102.694303,57.9993252 106.018342,58 L111.415725,58 L111.415725,36.5625354 C111.415725,32.3971605 112.112441,29.4044939 113.505875,27.5845354 C114.899309,25.764577 117.151737,24.8562271 120.26316,24.8594858 C122.995383,24.8594858 124.899659,25.6900353 125.97599,27.3511343 C127.05232,29.0122333 127.588415,31.5303585 127.584275,34.9055096 L127.584275,52.2224059 C127.584275,53.7547191 128.202909,55.2242728 129.304085,56.3077819 C130.40526,57.3912909 131.898774,58 133.456071,58 L139,58 L139,32.8452255 C139,30.3132511 138.772315,28.0061238 138.316944,25.9238437 C137.861574,23.8415636 137.067573,22.0749657 135.934943,20.6240498 Z" id="Path" fill="#33CCFF"></path>
            <path d="M101,17 L101,31 C104.903189,27.1792478 107.674059,22.3302241 109,17 L101,17 Z" id="Path" fill="#33CCFF"></path>
            <path d="M37.265062,46.0425746 L37.2394787,46.0720751 C37.0555227,46.2736619 36.863039,46.4641859 36.6669005,46.6485641 C36.2502584,47.0812381 35.8470171,47.5270235 35.4571766,47.9859202 C35.0267277,48.5751108 34.5755685,49.1487317 34.1036991,49.7067829 C30.3854798,54.0870509 25.485438,57.2822846 20,58.9035646 C22.5258417,59.6205908 25.2539132,59.9860692 28.1842144,60 L28.3669522,60 C28.6727333,60 28.976078,59.9901665 29.2733314,59.9815622 C32.3912434,59.8996163 35.2699719,59.375163 37.9095171,58.408202 C40.7150801,57.3999925 43.2899527,55.8304975 45.4797327,53.7938317 C47.6360381,51.777964 49.3712345,49.3376169 50.6853219,46.4727903 C51.8548435,43.9226357 52.6264028,41.0983723 53,38 C48.2763275,38.7867363 43.8152647,40.7279608 40.0061282,43.654263 C39.0451969,44.393438 38.1298111,45.1910205 37.265062,46.0425746 Z" id="Path" fill="#33CCFF"></path>
            <path d="M27.6935987,49.4227064 C24.904859,49.4227064 22.5382494,48.8744791 20.5937698,47.7780245 C18.6945298,46.7260311 17.0707936,45.2266499 15.8585191,43.4054263 C14.6262492,41.5353936 13.7314452,39.4570933 13.216042,37.2679245 C12.6609113,34.9707609 12.3825942,32.6134697 12.3872208,30.2479709 C12.3810698,27.7895822 12.6592539,25.338987 13.216042,22.9466738 C13.5115035,21.6759486 13.925346,20.4367357 14.4519607,19.2458297 C14.5519068,19.0214985 14.6555095,18.7984068 14.7627687,18.5790332 L14.7810515,18.5430907 C14.8822164,18.3385899 14.9858191,18.1353285 15.0930783,17.9370248 C15.1259874,17.8750548 15.1613342,17.8130849 15.1954621,17.7548332 C15.2807819,17.6011477 15.3661018,17.4462229 15.4550782,17.2962557 C15.5854956,17.0768821 15.7195697,16.8599874 15.8585191,16.6480502 C17.0634446,14.808306 18.6902122,13.2940594 20.5986452,12.2357913 C22.5423122,11.1401629 24.9089219,10.5919356 27.6984741,10.5911094 C27.8288915,10.5911094 27.9568713,10.5911094 28.0860699,10.5985457 C30.9061708,10.673003 33.624666,11.6846989 35.8257975,13.4789081 C36.9143955,14.3706432 37.8480167,15.4419172 38.5877224,16.6480502 L38.6096618,16.6839928 C40.0722875,19.0958624 42.6026299,20.6190833 45.387713,20.6190833 L52,20.6190833 C51.6319059,17.3041052 50.7380791,14.3625992 49.3185196,11.7945654 C48.6201437,10.525904 47.8016623,9.32958379 46.8747158,8.22261866 C45.9849042,7.16252272 44.9931074,6.19552888 43.9141176,5.33605936 C41.691292,3.57952843 39.1803405,2.23680441 36.4973865,1.36998389 C33.6518371,0.445713086 30.6807487,-0.0164755624 27.6935987,0.000448457818 C23.3796654,0.000448457818 19.5004571,0.775898838 16.0559736,2.3267996 C14.3880068,3.07524117 12.8014036,3.99863637 11.3219417,5.08198265 L11.3097532,5.08198265 C11.2293088,5.14147378 11.1513021,5.20592251 11.0659822,5.26541364 C10.9806624,5.32490477 10.874622,5.41042327 10.7795514,5.48478719 C10.5796592,5.63971201 10.3834236,5.79835503 10.1884068,5.95947685 C10.0969927,6.03631956 10.0043597,6.11192287 9.91294564,6.19000498 C9.71549118,6.35856319 9.52169327,6.53207899 9.33033308,6.70683419 C9.24988866,6.78119811 9.16700654,6.85184383 9.08656213,6.92620774 C8.82085179,7.17408746 8.56001688,7.42196718 8.30527623,7.68967727 L8.24799006,7.74545021 C7.93352554,8.0685201 7.62799928,8.40150519 7.33141129,8.74440546 C7.08764034,9.02450954 6.85483909,9.31328941 6.62325669,9.60330868 C6.54403113,9.70369997 6.46358671,9.80285185 6.37948574,9.90324314 C4.43110214,12.4395294 2.91116941,15.2876997 1.88191173,18.3311535 C0.627303909,21.9972945 0,25.969567 0,30.2479709 C0,34.4197865 0.630960473,38.3106718 1.89288142,41.9206267 C3.15480237,45.5305817 4.96967708,48.6728702 7.33750557,51.3474924 C8.55091363,52.7169304 9.91292624,53.9422395 11.3975107,55 C17.4231096,54.9339271 23.282624,52.9831746 28.1799217,49.4127912 C28.0190329,49.4165094 27.8581441,49.4227064 27.6935987,49.4227064 Z" id="Path" fill="#33CCFF"></path>
            <path d="M57,42.0049139 L57,41.9950861 L57,42.0049139 Z" id="Path" fill="#33CCFF"></path>
            <path d="M56.9907946,43.0294836 L57.0092054,42.9705164 L56.9907946,43.0294836 Z" id="Path" fill="#33CCFF"></path>
            <path d="M55.9932494,44.0300978 C55.9932494,44.0092136 56.0030685,43.9895579 56.0067506,43.9699022 C55.9932494,43.9895579 55.9932494,44.0092136 55.9932494,44.0300978 Z" id="Path" fill="#33CCFF"></path>
            <path d="M56.9895672,43.0386972 C56.9957041,43.0128991 57.0030685,42.9871009 57.0104328,42.9613028 C57.0042959,42.9871009 56.9969315,43.0190415 56.9895672,43.0386972 Z" id="Path" fill="#33CCFF"></path>
            <path d="M56.9324935,43.2229696 C56.9754522,43.0718662 57.0196382,42.9219914 57.0675065,42.7770304 C57.0196382,42.9219914 56.9742248,43.0718662 56.9324935,43.2229696 Z" id="Path" fill="#33CCFF"></path>
            <path d="M56.941699,43.2358686 C56.9772933,43.0749374 57.0165698,42.9176917 57.058301,42.7641314 C57.0165698,42.9176917 56.9772933,43.0749374 56.941699,43.2358686 Z" id="Path" fill="#33CCFF"></path>
            <path d="M55.9067183,45 C55.955814,44.6542373 56.0171835,44.3220339 56.0932817,44 C56.0196382,44.319774 55.955814,44.6531073 55.9067183,45 Z" id="Path" fill="#33CCFF"></path>
            <path d="M56.9153101,42.2334117 C56.9693152,42.0749374 57.0257752,41.9189202 57.0846899,41.7665883 C57.0257752,41.9189202 56.9693152,42.0749374 56.9153101,42.2334117 Z" id="Path" fill="#33CCFF"></path>
            <path d="M69.4496452,42.0385565 C70.1097348,41.5711003 70.8422408,41.2116066 71.6188628,40.9739644 C72.4476685,40.7097387 73.2928509,40.4980948 74.1492029,40.3403367 C75.0592484,40.1824385 75.9692939,40.0513993 76.8793394,39.947219 C78.67769,39.6658723 80.4590708,39.2880626 82.2155153,38.8154794 L82.2676361,38.8008291 C85.7088491,37.8790778 89.9939224,36.3444536 92.6111306,33.9930723 C94.1107704,32.8917347 94.9950789,31.159467 94.9975181,29.3183896 L94.9975181,27.6213906 C94.9975181,26.0749647 94.7782798,24.7173656 94.3398034,23.5485932 C94.0898133,22.8707442 93.7434485,22.2311657 93.3110383,21.648931 C92.1786939,20.1434893 90.6869874,18.9354982 88.9676393,18.131626 C87.1202724,17.2663052 85.1455319,16.6935775 83.1164604,16.4346271 C82.040952,16.2905653 80.9766125,16.1823155 79.9234416,16.1098776 C79.6591148,16.0915647 79.3947879,16.0744726 79.1304611,16.0610431 C78.3395488,16.0203477 77.5536004,16 76.7726159,16 C76.209215,16 75.6408502,16.0134295 75.0774493,16.0415093 C73.3490745,16.1266721 71.6294107,16.3368208 69.932383,16.6702535 C67.7702951,17.0768695 65.69324,17.8387589 63.7883349,18.9239658 C61.9838281,19.9641157 60.4454123,21.3970008 59.2910555,23.1127452 C58.1113056,24.8528813 57.4415948,27.0398531 57.2819232,29.6736606 L64.4559773,29.6736606 C66.6053394,29.6736606 68.5350495,28.4613441 69.5315493,26.5873201 C69.8677708,25.9381865 70.3483455,25.3719266 70.9375696,24.9306096 C72.0618895,24.1028648 73.5551914,23.6373092 75.4174754,23.5339428 C75.6755974,23.5168507 75.9362014,23.5095256 76.207974,23.5095256 C76.7155312,23.5095256 77.2106787,23.5266176 77.6834887,23.5583601 C78.1562987,23.5901025 78.6377955,23.6401579 79.089509,23.7048636 C79.9117611,23.8181062 80.7039864,24.0867463 81.4225348,24.4959825 C82.0987953,24.8987293 82.6528983,25.4725223 83.0271104,26.1575764 C83.1306127,26.3425431 83.2181999,26.5357065 83.2889554,26.7350444 C83.5148121,27.3617539 83.6277405,28.1288625 83.6277405,29.0363703 C83.6798613,30.1974106 83.3323893,31.0776525 82.5840837,31.6844212 C81.8357782,32.2911899 80.8156999,32.752676 79.5300538,33.0676585 C78.0773393,33.4099591 76.6012386,33.6478411 75.1134375,33.7794214 C73.4530181,33.9373196 71.765711,34.1477149 70.0515162,34.4106073 C68.3332432,34.6753305 66.6309816,35.0323561 64.9523658,35.4800829 C63.8925794,35.7575299 62.8665024,36.1472286 61.892131,36.6423441 C61.3941219,36.8971855 60.9129144,37.1826179 60.4513635,37.4969478 C59.1070776,38.4308046 58.006192,39.6640307 57.2384892,41.0960507 C57.0749115,41.3956419 56.9298677,41.7046753 56.8041493,42.0214645 L56.8041493,42.0312314 C56.7445827,42.1826183 56.687498,42.3376679 56.6328953,42.4951591 L56.6142807,42.5537605 C56.5658828,42.6978223 56.5212079,42.8467676 56.4777739,42.9969336 C56.4703281,43.0225718 56.4628822,43.0482099 56.4566774,43.073848 C56.4144844,43.2264558 56.3747733,43.3827262 56.3387851,43.5426592 C56.3387851,43.562193 56.3288574,43.5817268 56.3251344,43.6024815 C56.2481942,43.9492064 56.1861457,44.3093609 56.1365068,44.6829448 C56.1079645,44.9027001 56.0819041,45.1273388 56.0632895,45.3556401 C56.0210965,45.8281139 56,46.3176798 56,46.8280003 C56,48.9376508 56.3611226,50.7563291 57.0833678,52.2840351 C57.7695865,53.7652092 58.8025352,55.0654905 60.0976867,56.0784759 C61.4320824,57.1031474 62.9610898,57.8552631 64.5949661,58.2906789 C66.2066058,58.7253795 67.8669463,58.9611882 69.5377542,58.9926748 C69.7263818,58.9926748 69.9100455,59 70.104878,59 C70.5888567,59 71.0703535,58.9853496 71.5468864,58.9621533 L72.0271423,58.9304108 C72.5235307,58.8945989 73.0199192,58.8449505 73.5163076,58.7814656 C74.9289844,58.5985633 76.3239846,58.3017077 77.6872116,57.8938985 C80.1202401,57.1679275 82.3232775,55.8400327 84.0856588,54.0371937 L84.1030324,54.0201016 L84.1129602,54.0103347 C84.1129602,54.026206 84.1129602,54.0420772 84.1129602,54.0579484 C84.9624596,56.3861302 87.1979147,57.9458692 89.712222,57.9647086 L95,57.9647086 L95,37.8558814 C91.743186,38.6823518 88.651811,40.0444898 85.8565246,41.8847279 L85.6840297,41.9982681 C84.307296,42.9429306 83.3955028,44.4115439 83.1698221,46.0478692 C83.1847138,45.9257829 83.2008464,45.8171261 83.2207019,45.7060277 C83.0201631,46.4435011 82.724037,47.1525353 82.3396124,47.8156781 C81.7480829,48.8436444 80.8380374,49.7259211 79.6094759,50.4625082 C78.832628,50.9313194 77.8497789,51.2463019 76.6671334,51.4172227 C76.3171795,51.467278 75.952334,51.5063456 75.5676329,51.5307629 C75.1829319,51.5551801 74.7771343,51.5698305 74.3564451,51.5698305 L74.3328666,51.5698305 C74.1380342,51.5698305 73.9419607,51.5625053 73.7471283,51.5551801 C73.6230312,51.5551801 73.498934,51.5454132 73.3748369,51.5344255 C73.3648087,51.5379667 73.3538408,51.5379667 73.3438126,51.5344255 C73.2544627,51.5344255 73.1651128,51.5234377 73.0794858,51.5173334 C72.9938588,51.5112291 72.9094727,51.5051248 72.8312916,51.494137 L72.3932288,51.4391982 C72.2852643,51.4257687 72.1772998,51.4123392 72.0693353,51.3915846 C71.9613708,51.3708299 71.8534063,51.3574004 71.7454418,51.3366458 C70.9473965,51.1993844 70.1830836,50.914356 69.4930792,50.4966923 C68.8463527,50.0981105 68.3187616,49.537781 67.9642028,48.8729451 C67.5919114,48.1917038 67.4045248,47.3456461 67.4045248,46.3457596 C67.4045248,45.2909344 67.5881885,44.424122 67.9642028,43.7367764 C68.3260545,43.0699018 68.8333088,42.4899874 69.4496452,42.0385565 Z" id="Path" fill="#33CCFF"></path>
            <path d="M211.010433,12.9385759 C211.003068,12.9791158 210.998159,13.0196557 210.989567,13.0614241 C210.998159,13.0196557 211.003068,12.9791158 211.010433,12.9385759 Z" id="Path" fill="#33CCFF"></path>
            <path d="M211.041065,12 C211.040313,12.3350828 211.012809,12.6695376 210.958829,13 C211.015586,12.6699032 211.04311,12.3352011 211.041065,12 Z" id="Path" fill="#33CCFF"></path>
            <path d="M211.004296,13.9791158 C211.004296,13.9938576 211.004296,14.0073709 210.995704,14.0208842 C210.998159,14.0073709 211.001841,13.9938576 211.004296,13.9791158 Z" id="Path" fill="#33CCFF"></path>
            <polygon id="Path" fill="#919D9D" points="174 30.6467662 174 35 149 35 149 0 173.310759 0 173.310759 4.35323383 153.921404 4.35323383 153.921404 15.1032338 171.191616 15.1032338 171.191616 19.3532338 153.917732 19.3532338 153.917732 30.6467662"></polygon>
            <path d="M185.556398,34.2450931 C183.553393,33.1264079 181.887662,31.4608432 180.741713,29.4308895 C179.581374,27.3839117 179.000803,25.0638934 179.000001,22.4708343 C178.999198,19.8777752 179.579769,17.5577568 180.741713,15.5107791 C181.883875,13.4840876 183.551112,11.8256128 185.556398,10.7213974 C187.605046,9.57379913 189.935755,9 192.548523,9 C194.875621,9 196.948343,9.48195817 198.766689,10.4458745 C200.552228,11.3754348 202.026722,12.8352526 203,14.637049 L199.470836,16.9827166 C198.729064,15.7802543 197.694388,14.7994255 196.470084,14.1381292 C195.239498,13.4966384 193.876768,13.1713369 192.497969,13.1899333 C190.820052,13.1899333 189.311852,13.572604 187.973369,14.3379453 C186.643547,15.0947813 185.552031,16.2288472 184.828177,17.6057458 C184.069864,19.020593 183.691109,20.6422891 183.691911,22.4708343 C183.691911,24.3341301 184.070666,25.9719605 184.828177,27.3843254 C185.551044,28.7619798 186.642806,29.8963015 187.973369,30.6521259 C189.311852,31.4174672 190.820052,31.8001379 192.497969,31.8001379 C193.876809,31.819128 195.239629,31.493805 196.470084,30.8519421 C197.694599,30.1915163 198.72938,29.2110155 199.470836,28.0085957 L203,30.3083429 C202.024584,32.1155617 200.5514,33.5840156 198.766689,34.5280625 C196.942726,35.5093542 194.870004,36 192.548523,36 C189.935755,35.9942082 187.605046,35.4092393 185.556398,34.2450931 Z" id="Path" fill="#919D9D"></path>
            <path d="M212.566547,33.2532187 C210.551878,32.1325896 208.881145,30.4657802 207.739459,28.4374655 C206.579008,26.3898289 205.999188,24.0690638 206.000001,21.4751701 C206.000813,18.8812764 206.580633,16.5605113 207.739459,14.5128747 C208.877222,12.4877987 210.549499,10.8280501 212.566547,9.72195144 C214.624154,8.57398381 216.943432,8 219.52438,8 C222.105328,8 224.416479,8.57398381 226.457833,9.72195144 C228.46412,10.8342232 230.127022,12.4930446 231.260542,14.5128747 C232.420181,16.558856 233,18.8796211 233,21.4751701 C233,24.0707191 232.420181,26.3914843 231.260542,28.4374655 C230.123131,30.4605904 228.461745,32.126489 226.457833,33.2532187 C224.416479,34.4177396 222.105328,35 219.52438,35 C216.943432,35 214.624154,34.4177396 212.566547,33.2532187 Z M224.008939,29.6342652 C225.329901,28.8546569 226.408125,27.7113202 227.119729,26.3356171 C227.87061,24.9219698 228.246456,23.3001655 228.247269,21.4702042 C228.248081,19.6402428 227.872235,18.0180246 227.119729,16.6035498 C226.409594,15.2357321 225.330236,14.103254 224.008939,13.3396634 C222.686772,12.5749034 221.192325,12.1921096 219.525599,12.191282 C217.858872,12.1904543 216.364425,12.5732481 215.042258,13.3396634 C213.716,14.107501 212.629005,15.2404053 211.90587,16.6085157 C211.137924,18.0238183 210.753951,19.6460364 210.753951,21.4751701 C210.753951,23.3043038 211.137518,24.9244528 211.904651,26.3356171 C212.630786,27.7079019 213.716517,28.8480844 215.041039,29.6292992 C216.363206,30.4114401 217.857653,30.8025106 219.52438,30.8025106 C221.191106,30.8025106 222.68596,30.4130955 224.008939,29.6342652 Z" id="Shape" fill="#919D9D" fill-rule="nonzero"></path>
            <path d="M262.042678,11.8421444 C264.013402,13.7377133 264.999176,16.5182034 265,20.1836146 L265,35 L260.22897,35 L260.22897,20.7119078 C260.22897,18.218332 259.615746,16.3392849 258.389298,15.0747664 C257.162851,13.8102478 255.406838,13.1783915 253.12126,13.1791975 C250.537313,13.1791975 248.499827,13.9162288 247.008803,15.3902915 C245.517779,16.8643542 244.772266,18.9783326 244.772266,21.7322267 L244.772266,35 L240,35 L240,9.24299065 L244.574452,9.24299065 L244.574452,13.1308411 C245.534675,11.8018475 246.835303,10.7811255 248.476336,10.0686753 C250.11737,9.35622511 251.980944,9 254.067059,9 C257.413415,9 260.071955,9.94738147 262.042678,11.8421444 Z" id="Path" fill="#919D9D"></path>
            <path d="M278.56625,33.2532187 C276.551672,32.1325896 274.881015,30.4657802 273.739381,28.4374655 C272.578981,26.3898289 271.999188,24.0690638 272.000001,21.4751701 C272.000813,18.8812764 272.580607,16.5605113 273.739381,14.5128747 C274.877092,12.4877987 276.549293,10.8280501 278.56625,9.72195144 C280.623765,8.57398381 282.942938,8 285.523769,8 C288.104601,8 290.415647,8.57398381 292.45691,9.72195144 C294.463106,10.8342232 296.125933,12.4930446 297.259401,14.5128747 C298.4198,16.558856 299,18.8796211 299,21.4751701 C299,24.0707191 298.420207,26.3914843 297.26062,28.4374655 C296.123261,30.4605904 294.461949,32.126489 292.458129,33.2532187 C290.416866,34.4177396 288.105819,35 285.524988,35 C282.944157,35 280.624577,34.4177396 278.56625,33.2532187 Z M290.006907,29.6342652 C291.328259,28.8548406 292.406873,27.7114868 293.118776,26.3356171 C293.870435,24.9285911 294.246264,23.3084422 294.246264,21.4751701 C294.246264,19.6418981 293.870435,18.01968 293.118776,16.6085157 C292.409093,15.238697 291.329275,14.1044053 290.006907,13.3396634 C288.683988,12.5749034 287.189608,12.1921096 285.523769,12.191282 C283.85793,12.1904543 282.363551,12.5732481 281.040631,13.3396634 C279.714717,14.1078762 278.627862,15.2406859 277.904384,16.6085157 C277.136473,18.0238183 276.752518,19.6460364 276.752518,21.4751701 C276.752518,23.3043038 277.136473,24.9261081 277.904384,26.340583 C278.63085,27.7125966 279.716446,28.8526887 281.040631,29.6342652 C282.363551,30.4164061 283.85793,30.8074765 285.523769,30.8074765 C287.189608,30.8074765 288.683988,30.4164061 290.006907,29.6342652 Z" id="Shape" fill="#919D9D" fill-rule="nonzero"></path>
            <path d="M345.14087,11.8179673 C347.046957,13.6974173 348,16.4839518 348,20.1775708 L348,35 L343.307721,35 L343.307721,20.7119084 C343.307721,18.2183328 342.729492,16.3392857 341.573036,15.0747672 C340.41658,13.8102488 338.763341,13.1783925 336.613321,13.1791984 C334.233954,13.1791984 332.344481,13.9162298 330.944901,15.3902924 C329.545322,16.864355 328.844721,18.9783333 328.843101,21.7322273 L328.843101,35 L324.147174,35 L324.147174,20.7119084 C324.147174,18.2183328 323.568946,16.3392857 322.41249,15.0747672 C321.256033,13.8102488 319.605631,13.1783925 317.461284,13.1791984 C315.082728,13.1791984 313.19285,13.9162298 311.791649,15.3902924 C310.390448,16.864355 309.690253,18.9783333 309.691064,21.7322273 L309.691064,35 L305,35 L305,9.2429918 L309.497781,9.2429918 L309.497781,13.0812768 C310.438976,11.7590839 311.719835,10.7124125 313.206627,10.0505428 C314.738303,9.3542114 316.480687,9.0060457 318.433777,9.0060457 C320.452511,9.0060457 322.243924,9.40901526 323.808017,10.2149544 C325.351079,11.0016808 326.614854,12.2394972 327.429339,13.7618924 C328.406694,12.2725169 329.766969,11.106323 331.510163,10.2633107 C333.253357,9.4202984 335.215767,8.99919522 337.397393,9.00000115 C340.653625,9.00000115 343.234784,9.93932319 345.14087,11.8179673 Z" id="Path" fill="#919D9D"></path>
            <path d="M380,9 L367.194837,37.7499117 C366.065359,40.4135762 364.743365,42.2876282 363.228856,43.3720676 C361.714347,44.456507 359.896605,44.9991356 357.775631,44.9999534 C356.496098,45.0035714 355.224887,44.7962799 354.014146,44.3865827 C352.882862,44.0243773 351.851352,43.4085031 351,42.5869531 L353.04248,39.0355367 C354.404134,40.3187082 355.981851,40.9598851 357.775631,40.9590672 C358.93816,40.9590672 359.909825,40.6552443 360.690628,40.0475984 C361.47143,39.4399525 362.177458,38.3959955 362.80871,36.9157275 L363.65396,35.0903363 L352.003889,9 L356.986153,9 L366.203342,29.9085806 L375.316424,9 L380,9 Z" id="Path" fill="#919D9D"></path>
        </g>
    </g>
</svg>